# xmcd CD database file
#
# Track frame offsets:
#	150
#	17283
#	28880
#	41859
#	53298
#	64937
#	75589
#	87592
#	99959
#	113839
#	124873
#	138328
#	151567
#	161227
#	174286
#	185647
#	198889
#	210780
#	226608
#	240191
#	248693
#	260297
#	275024
#	290280
#	300307
#
# Disc length: 4199 seconds
#
# Revision: 0
# Processed by: cddbd v1.5.2PL0 Copyright (c) Steve Scherf et al.
# Submitted via: CDex 1.51
#
DISCID=34106519
DTITLE=DJ Yeyo - Puro Norte!!!
DYEAR=2008
DGENRE=Country
TTITLE0=01 Siggno - Estupida
TTITLE1=02 Duelo - Despues de la tormenta
TTITLE2=03 Duelo - El no sabe
TTITLE3=04 Duelo - Y me quede suspirando
TTITLE4=05 Duelo - Eres mi inspiracion
TTITLE5=06 La Firma - Como olvidarla
TTITLE6=07 La Costumbre - Eres mi motivo
TTITLE7=08 Solido - Tal vez
TTITLE8=09 La Costumbre - Cuantas veces te olvide
TTITLE9=10 La Costumbre - Como olvidarte
TTITLE10=11 La Costumbre - Eternamente
TTITLE11=12 La Costumbre - Y ya despues
TTITLE12=13 La Costumbre - El amor tuyo
TTITLE13=14 Eddie Gonzalez - Fuiste tu
TTITLE14=15 La Costumbre - En donde estes
TTITLE15=16 Agresivo - Antes
TTITLE16=17 Duelo - Si acaso me escuchas
TTITLE17=18 La Cruz - Siete minutos
TTITLE18=19 La Costumbre - Dejame ser
TTITLE19=20 Duelo - Un minuto mas
TTITLE20=21 Duelo - El eco de tu voz
TTITLE21=22 La Costumbre - Quiero decirte
TTITLE22=23 Ambicion - La razon
TTITLE23=24 El Poder del Norte - Pero me perdonas
TTITLE24=25 La Contra - Fuiste tu
EXTD=YEAR: 2008
EXTT0=
EXTT1=
EXTT2=
EXTT3=
EXTT4=
EXTT5=
EXTT6=
EXTT7=
EXTT8=
EXTT9=
EXTT10=
EXTT11=
EXTT12=
EXTT13=
EXTT14=
EXTT15=
EXTT16=
EXTT17=
EXTT18=
EXTT19=
EXTT20=
EXTT21=
EXTT22=
EXTT23=
EXTT24=
PLAYORDER=
